<svg xmlns="http://www.w3.org/2000/svg" version="1.1" xmlns:xlink="http://www.w3.org/1999/xlink" xmlns:svgjs="http://svgjs.dev/svgjs" width="2000" height="1252" viewBox="0 0 2000 1252"><g transform="matrix(1,0,0,1,-1.2121212121212466,-2.019354838709546)"><svg viewBox="0 0 396 248" data-background-color="#050807" preserveAspectRatio="xMidYMid meet" height="1252" width="2000" xmlns="http://www.w3.org/2000/svg" xmlns:xlink="http://www.w3.org/1999/xlink"><g id="tight-bounds" transform="matrix(1,0,0,1,0.2400000000000091,0.4000000000000057)"><svg viewBox="0 0 395.52 247.2" height="247.2" width="395.52"><g><svg></svg></g><g><svg viewBox="0 0 395.52 247.2" height="247.2" width="395.52"><g transform="matrix(1,0,0,1,75.54432,91.64303471726754)"><svg viewBox="0 0 244.43135999999998 63.9139305654649" height="63.9139305654649" width="244.43135999999998"><g><svg viewBox="0 0 244.43135999999998 63.9139305654649" height="63.9139305654649" width="244.43135999999998"><g><svg viewBox="0 0 244.43135999999998 63.9139305654649" height="63.9139305654649" width="244.43135999999998"><g><svg viewBox="0 0 244.43135999999998 63.9139305654649" height="63.9139305654649" width="244.43135999999998"><g id="textblocktransform"><svg viewBox="0 0 244.43135999999998 63.9139305654649" height="63.9139305654649" width="244.43135999999998" id="textblock"><g><svg viewBox="0 0 244.43135999999998 63.9139305654649" height="63.9139305654649" width="244.43135999999998"><g transform="matrix(1,0,0,1,0,0)"><svg width="244.43135999999998" viewBox="2.9 -32.45 131.73999999999998 34.45" height="63.9139305654649" data-palette-color="#00b2ff"><path d="M15.85 0.6Q15.1 0.5 12.68 0.25 10.25 0 8.65 0L8.65 0Q7.1 0 5.28 0.25 3.45 0.5 2.9 0.6L2.9 0.6 3.2-1.7Q5.5-2.15 6.3-3.03 7.1-3.9 7.1-6L7.1-6 7.15-27Q7.15-28.6 6.78-29.15 6.4-29.7 5.3-29.7L5.3-29.7Q4.8-29.7 4.3-29.65 3.8-29.6 3.6-29.6L3.6-29.6 3.5-29.8 3.85-32Q4.4-31.95 5.95-31.9 7.5-31.85 9.1-31.85L9.1-31.85Q11.25-31.85 13.55-31.93 15.85-32 16.7-32.05L16.7-32.05Q21.5-32.05 25.25-30.18 29-28.3 31.08-24.9 33.15-21.5 33.15-17.1L33.15-17.1Q33.15-12.2 30.85-8.15 28.55-4.1 24.6-1.75 20.65 0.6 15.85 0.6L15.85 0.6ZM13.25-29.6Q12.2-29.6 11.85-29.38 11.5-29.15 11.45-28.5L11.45-28.5Q10.7-9.25 10.7-6.55L10.7-6.55Q10.7-4.65 11.23-3.7 11.75-2.75 13.08-2.35 14.4-1.95 17-1.95L17-1.95Q22.4-1.95 25.5-5.68 28.6-9.4 28.6-15.9L28.6-15.9Q28.6-22.5 24.63-26.05 20.65-29.6 13.25-29.6L13.25-29.6ZM51.25 0.5L51.1 0.15 51.3-1.8Q53.85-2 54.8-2.4 55.75-2.8 55.75-3.7L55.75-3.7Q55.75-4.7 55.3-6.1L55.3-6.1 53.65-11.55Q52.45-11.6 48.45-11.6L48.45-11.6Q46.05-11.6 43-11.2L43-11.2 41.15-6Q40.7-4.65 40.7-4.05L40.7-4.05Q40.7-2.95 41.4-2.48 42.1-2 43.7-2L43.7-2 46.55-2 46.65-1.8 46.35 0.35Q45.75 0.3 43.6 0.15 41.45 0 39.4 0L39.4 0Q37.55 0 35.97 0.05 34.4 0.1 33.9 0.15L33.9 0.15 34.3-2.2Q35.7-2.35 36.55-3.18 37.4-4 38.2-6.05L38.2-6.05 47.95-31.6 51.1-32.45 51.5-32.45Q51.8-31.25 53.02-26.9 54.25-22.55 56.02-16.6 57.8-10.65 59.45-5.65L59.45-5.65Q60.05-3.8 61.05-3.05 62.05-2.3 64.25-2.1L64.25-2.1 64.35-1.9 64 0.15Q63.4 0.15 61.82 0.08 60.25 0 58.7 0L58.7 0Q56.3 0 54.07 0.2 51.85 0.4 51.25 0.5L51.25 0.5ZM43.9-13.65L48.3-13.65Q50.1-13.65 52.95-13.9L52.95-13.9 49-27 48.65-27 43.9-13.65ZM92.34 2Q88-4.75 83.87-10.88 79.75-17 77.09-20.78 74.45-24.55 73.75-25.55L73.75-25.55 73.5-25.55 73.25-4.2Q73.25-3.1 73.59-2.65 73.95-2.2 74.8-2.2L74.8-2.2 77.34-2.25 77.45-2.05 77 0.2Q76.45 0.15 74.75 0.08 73.05 0 71.7 0L71.7 0Q70.45 0 68.97 0.18 67.5 0.35 67.05 0.4L67.05 0.4 67.3-1.9Q68.84-2.1 69.59-2.83 70.34-3.55 70.4-5.05L70.4-5.05 71.05-26.9Q71.05-28.45 70.12-29.1 69.2-29.75 66.7-30L66.7-30 66.55-30.25 66.95-32.1Q67.4-32.05 68.9-31.95 70.4-31.85 71.25-31.85L71.25-31.85Q72.3-31.85 73.3-31.93 74.3-32 74.59-32.05L74.59-32.05Q78.3-26.3 82.02-20.8 85.75-15.3 88.25-11.75 90.75-8.2 91.4-7.25L91.4-7.25 91.65-7.25 91.65-27.5Q91.65-29.65 90-29.65L90-29.65 88.09-29.6 88-29.8 88.45-32.05Q88.95-32 90.34-31.93 91.75-31.85 93.2-31.85L93.2-31.85Q94.5-31.85 96.07-32.02 97.65-32.2 98.15-32.25L98.15-32.25 97.9-29.95Q96.15-29.7 95.34-28.98 94.55-28.25 94.5-26.8L94.5-26.8 93.8 1.3 92.34 2ZM102.69 0.6L102.99-1.7Q105.29-2.15 106.09-3.03 106.89-3.9 106.89-6L106.89-6 106.94-27Q106.94-28.6 106.57-29.15 106.19-29.7 105.09-29.7L105.09-29.7 103.39-29.6 103.29-29.8 103.64-32Q104.29-32 104.64-31.95L104.64-31.95Q107.64-31.85 109.19-31.85L109.19-31.85Q111.29-31.85 114.54-32.3L114.54-32.3 114.34-30.05Q112.84-29.8 112.22-29.45 111.59-29.1 111.37-28.28 111.14-27.45 111.04-25.55L111.04-25.55 110.74-17.45 119.14-17.4Q122.29-17.4 126.54-17.9L126.54-17.9 126.59-27Q126.59-28.6 126.22-29.15 125.84-29.7 124.74-29.7L124.74-29.7Q124.04-29.7 123.04-29.6L123.04-29.6 122.94-29.8 123.29-32Q123.84-31.95 125.29-31.9 126.74-31.85 128.19-31.85L128.19-31.85Q130.59-31.85 134.19-32.3L134.19-32.3 133.99-30.05Q132.14-29.8 131.49-29.23 130.84-28.65 130.79-27.2L130.79-27.2Q130.49-21.55 130.29-15.08 130.09-8.6 130.09-5.3L130.09-5.3Q130.09-3.45 130.54-2.83 130.99-2.2 132.29-2.2L132.29-2.2Q132.89-2.2 134.54-2.35L134.54-2.35 134.64-2.15 134.19 0.15Q133.49 0.15 133.09 0.1L133.09 0.1Q129.79 0 128.04 0L128.04 0 122.29 0.1 122.74-2.15Q124.39-2.2 125.17-2.6 125.94-3 126.24-4.1 126.54-5.2 126.54-7.5L126.54-7.5 126.54-15.05 118.94-15.1Q117.69-15.05 115.44-14.93 113.19-14.8 110.64-14.55L110.64-14.55 110.44-5.6Q110.44-3.55 110.89-2.88 111.34-2.2 112.64-2.2L112.64-2.2Q113.24-2.2 114.89-2.35L114.89-2.35 114.99-2.15 114.54 0.15Q114.09 0.1 112.84 0.05 111.59 0 110.29 0L110.29 0Q107.99 0 105.37 0.2 102.74 0.4 102.69 0.6L102.69 0.6Z" opacity="1" transform="matrix(1,0,0,1,0,0)" fill="#00b2ff" class="wordmark-text-0" data-fill-palette-color="primary" id="text-0"></path></svg></g></svg></g></svg></g></svg></g></svg></g></svg></g></svg></g><g><path d="M245.816 0c68.262 0 123.6 55.338 123.6 123.6 0 68.262-55.338 123.6-123.6 123.6-54.449 0-100.675-35.208-117.154-84.099h3.046c16.362 47.272 61.27 81.217 114.108 81.217 66.671 0 120.718-54.047 120.718-120.718 0-66.671-54.047-120.718-120.718-120.718-52.837 0-97.745 33.945-114.108 81.217h-3.046c16.479-48.891 62.704-84.099 117.154-84.099z" fill="#00b2ff" stroke="transparent" data-fill-palette-color="tertiary"></path></g></svg></g><defs></defs></svg><rect width="395.52" height="247.2" fill="none" stroke="none" visibility="hidden"></rect></g></svg></g></svg>